<?xml version="1.0" encoding="UTF-8"?>
<!DOCTYPE svg PUBLIC "-//W3C//DTD SVG 1.1//EN" "http://www.w3.org/Graphics/SVG/1.1/DTD/svg11.dtd">
<!-- Creator: CorelDRAW -->
<svg xmlns="http://www.w3.org/2000/svg" xml:space="preserve" width="6.82666in" height="6.82666in" style="shape-rendering:geometricPrecision; text-rendering:geometricPrecision; image-rendering:optimizeQuality; fill-rule:evenodd; clip-rule:evenodd"
viewBox="0 0 6.82666 6.82666"
 xmlns:xlink="http://www.w3.org/1999/xlink">
 <defs>
  <style type="text/css">
   <![CDATA[
    .fil1 {fill:none}
    .fil0 {fill:#9E9E9E}
    .fil2 {fill:#FFFFFE;fill-rule:nonzero}
   ]]>
  </style>
 </defs>
 <g id="Layer_x0020_1">
  <metadata id="CorelCorpID_0Corel-Layer"/>
  <rect class="fil0" width="6.82666" height="6.82666"/>
  <g id="_242000568">
   <rect id="_242001864" class="fil1" width="6.82666" height="6.82666"/>
   <rect id="_242001480" class="fil1" x="0.853331" y="0.853331" width="5.12" height="5.12"/>
  </g>
  <path class="fil2" d="M3.41333 0.853331c0.706909,0 1.34691,0.286543 1.81019,0.749815 0.463272,0.463276 0.749815,1.10328 0.749815,1.81019 0,0.706909 -0.286543,1.34691 -0.749815,1.81019 -0.463272,0.463272 -1.10328,0.749815 -1.81019,0.749815 -0.706909,0 -1.34691,-0.286543 -1.81019,-0.749815 -0.463272,-0.463272 -0.749815,-1.10328 -0.749815,-1.81019 0,-0.706909 0.286543,-1.34691 0.749815,-1.81019 0.463276,-0.463272 1.10328,-0.749815 1.81019,-0.749815zm1.65935 0.90065c-0.424654,-0.424654 -1.01133,-0.687311 -1.65935,-0.687311 -0.648028,0 -1.2347,0.262657 -1.65935,0.687311 -0.424654,0.424657 -0.687311,1.01133 -0.687311,1.65935 0,0.648024 0.262657,1.2347 0.687311,1.65935 0.424657,0.424654 1.01133,0.687311 1.65935,0.687311 0.648028,0 1.2347,-0.262657 1.65935,-0.687311 0.424654,-0.424654 0.687311,-1.01132 0.687311,-1.65935 0,-0.648028 -0.262657,-1.2347 -0.687311,-1.65935z"/>
  <path class="fil2" d="M5.24722 1.92978c-0.251866,0.152114 -0.541976,0.270378 -0.854358,0.350681 -0.311181,0.0799921 -0.642992,0.122035 -0.979531,0.122035 -0.358138,0 -0.710205,-0.0475197 -1.03731,-0.13737 -0.328429,-0.0902165 -0.630744,-0.223043 -0.887988,-0.393268l0.117504 -0.177504c0.239063,0.158197 0.52039,0.281736 0.826319,0.365772 0.307252,0.0843976 0.640323,0.129031 0.98148,0.129031 0.320996,0 0.63498,-0.0394567 0.927028,-0.114531 0.290846,-0.0747677 0.561429,-0.185161 0.796862,-0.32735l0.11 0.182504z"/>
  <path class="fil2" d="M5.13722 5.07939c-0.235433,-0.142185 -0.506016,-0.252583 -0.796862,-0.327346 -0.292047,-0.0750748 -0.606031,-0.114531 -0.927028,-0.114531 -0.341157,0 -0.674228,0.0446339 -0.98148,0.129031 -0.305929,0.0840354 -0.587256,0.207575 -0.826319,0.365772l-0.117504 -0.177504c0.257244,-0.170224 0.559559,-0.303051 0.887988,-0.393268 0.32711,-0.0898504 0.679177,-0.13737 1.03731,-0.13737 0.336539,0 0.66835,0.0420433 0.979531,0.122035 0.312378,0.0802992 0.602492,0.198567 0.854358,0.350677l-0.11 0.182504z"/>
  <polygon class="fil2" points="0.96,3.30666 5.86204,3.30666 5.86204,3.52 0.96,3.52 "/>
  <path class="fil2" d="M2.76764 1.06487c-0.143354,0.311594 -0.255024,0.671551 -0.331094,1.06 -0.0761654,0.388937 -0.116197,0.80587 -0.116197,1.23093 0,0.452504 0.0452126,0.894807 0.130697,1.30334 0.0852402,0.407327 0.210331,0.781465 0.370354,1.09891l-0.19 0.0958346c-0.168394,-0.334043 -0.299669,-0.726028 -0.388685,-1.15141 -0.0887638,-0.424189 -0.135705,-0.881232 -0.135705,-1.34667 0,-0.438071 0.0414685,-0.868854 0.12037,-1.27176 0.0789961,-0.403378 0.195992,-0.779425 0.346929,-1.1075l0.193331 0.0883307z"/>
  <path class="fil2" d="M4.25236 0.976535c0.150937,0.328075 0.267933,0.704122 0.346929,1.1075 0.0789016,0.402906 0.12037,0.833689 0.12037,1.27176 0,0.465437 -0.0469409,0.92248 -0.135705,1.34667 -0.0890157,0.425382 -0.220291,0.817366 -0.388685,1.15141l-0.19 -0.0958346c0.160024,-0.317441 0.285114,-0.691579 0.370354,-1.09891 0.0854843,-0.408531 0.130697,-0.850835 0.130697,-1.30334 0,-0.425055 -0.0400315,-0.841988 -0.116197,-1.23093 -0.0760709,-0.388453 -0.18774,-0.748409 -0.331094,-1.06l0.193331 -0.0883307z"/>
  <polygon class="fil2" points="3.52,0.973382 3.52,5.85328 3.30666,5.85328 3.30666,0.973382 "/>
 </g>
</svg>
